<svg width="50" height="51" viewBox="0 0 50 51" fill="none" xmlns="http://www.w3.org/2000/svg">
<g id="certificate-02">
<path id="Icon" d="M18.75 39.0417H31.25M14.5833 31.75H35.4167M10.4167 4.66669L39.5833 4.66669C41.8845 4.66669 43.75 6.73944 43.75 9.29632V41.7037C43.75 44.2606 41.8845 46.3334 39.5833 46.3334H10.4167C8.11548 46.3334 6.25 44.2606 6.25 41.7037L6.25 9.29632C6.25 6.73944 8.11548 4.66669 10.4167 4.66669ZM24.995 13.4416C23.5371 11.8184 21.1061 11.3817 19.2795 12.8681C17.4529 14.3545 17.1957 16.8396 18.6301 18.5975C20.0646 20.3555 24.995 24.4584 24.995 24.4584C24.995 24.4584 29.9254 20.3555 31.3599 18.5975C32.7943 16.8396 32.5685 14.3388 30.7105 12.8681C28.8525 11.3974 26.4529 11.8184 24.995 13.4416Z" stroke="black" stroke-width="2" stroke-linecap="round" stroke-linejoin="round"/>
</g>
</svg>
