<svg width="50" height="50" viewBox="0 0 50 50" fill="none" xmlns="http://www.w3.org/2000/svg">
<g id="coins-swap-02">
<path id="Icon" d="M12.4993 12.5L16.666 8.33335M16.666 8.33335L12.4993 4.16669M16.666 8.33335H12.4993C7.89698 8.33335 4.16602 12.0643 4.16602 16.6667M37.4993 37.5L33.3327 41.6667M33.3327 41.6667L37.4993 45.8334M33.3327 41.6667H37.4993C42.1017 41.6667 45.8327 37.9357 45.8327 33.3334M21.2265 13.5417C22.6141 8.15035 27.5082 4.16669 33.3327 4.16669C40.2362 4.16669 45.8327 9.76313 45.8327 16.6667C45.8327 22.4911 41.8491 27.3852 36.4578 28.7728M29.166 33.3334C29.166 40.2369 23.5696 45.8334 16.666 45.8334C9.76246 45.8334 4.16602 40.2369 4.16602 33.3334C4.16602 26.4298 9.76246 20.8334 16.666 20.8334C23.5696 20.8334 29.166 26.4298 29.166 33.3334Z" stroke="black" stroke-width="2" stroke-linecap="round" stroke-linejoin="round"/>
</g>
</svg>
