<svg width="50" height="50" viewBox="0 0 50 50" fill="none" xmlns="http://www.w3.org/2000/svg">
<g id="coins-stacked-04">
<path id="Icon" d="M41.6673 10.4167C41.6673 13.8685 34.2054 16.6667 25.0007 16.6667C15.7959 16.6667 8.33398 13.8685 8.33398 10.4167M41.6673 10.4167C41.6673 6.96491 34.2054 4.16669 25.0007 4.16669C15.7959 4.16669 8.33398 6.96491 8.33398 10.4167M41.6673 10.4167V39.5834C41.6673 43.0351 34.2054 45.8334 25.0007 45.8334C15.7959 45.8334 8.33398 43.0351 8.33398 39.5834L8.33398 10.4167M41.6673 20.1388C41.6673 23.5906 34.2054 26.3888 25.0007 26.3888C15.7959 26.3888 8.33398 23.5906 8.33398 20.1388M41.6673 29.8542C41.6673 33.306 34.2054 36.1042 25.0007 36.1042C15.7959 36.1042 8.33398 33.306 8.33398 29.8542" stroke="black" stroke-width="2" stroke-linecap="round" stroke-linejoin="round"/>
</g>
</svg>
