<svg width="50" height="50" viewBox="0 0 50 50" fill="none" xmlns="http://www.w3.org/2000/svg">
<g id="compass-03">
<g id="Icon">
<path d="M25.0001 45.8334C36.506 45.8334 45.8334 36.506 45.8334 25C45.8334 13.4941 36.506 4.16669 25.0001 4.16669C13.4941 4.16669 4.16675 13.4941 4.16675 25C4.16675 36.506 13.4941 45.8334 25.0001 45.8334Z" stroke="black" stroke-width="2" stroke-linecap="round" stroke-linejoin="round"/>
<path d="M30.6711 17.2208C31.6889 16.8815 32.1978 16.7119 32.5363 16.8326C32.8308 16.9376 33.0625 17.1693 33.1675 17.4638C33.2882 17.8023 33.1186 18.3112 32.7793 19.329L29.6803 28.6261C29.5836 28.916 29.5353 29.0609 29.453 29.1813C29.3801 29.2879 29.288 29.38 29.1814 29.4529C29.061 29.5353 28.9161 29.5836 28.6262 29.6802L19.329 32.7793C18.3112 33.1185 17.8023 33.2882 17.4639 33.1675C17.1694 33.0625 16.9376 32.8307 16.8326 32.5362C16.7119 32.1978 16.8816 31.6889 17.2208 30.6711L20.3199 21.3739C20.4165 21.084 20.4648 20.9391 20.5472 20.8187C20.6201 20.7121 20.7122 20.62 20.8188 20.5471C20.9392 20.4648 21.0841 20.4165 21.374 20.3198L30.6711 17.2208Z" stroke="black" stroke-width="2" stroke-linecap="round" stroke-linejoin="round"/>
</g>
</g>
</svg>
