<svg width="56" height="45" viewBox="0 0 56 45" fill="none" xmlns="http://www.w3.org/2000/svg">
<g id="Equestrian_x2F_Dressage">
<path id="Vector" d="M9.7 27.5C6.4 27.5 3.2 28.8 0.9 31.2L0.4 31.7C0.2 31.9 0.2 32.2 0.4 32.4C0.5 32.5 0.6 32.5 0.7 32.5C0.8 32.5 1 32.5 1.1 32.4L1.6 31.9C3.7 29.8 6.7 28.5 9.7 28.5H22.7L21.7 27.5H9.7Z" fill="#FCB019"/>
<path id="Vector_2" d="M30.9002 24.2C29.9002 25.2 28.9002 25.9 27.7002 26.5L28.5002 27.3C29.7002 26.7 30.7002 25.9 31.7002 25L37.0002 19.5H35.6002L30.9002 24.2Z" fill="#FCB019"/>
<path id="Vector_3" d="M54.6998 9.5H52.6998H50.6998C47.3998 9.5 44.1998 10.8 41.8998 13.2L39.2998 15.8C39.4998 16.1 39.5998 16.5 39.5998 16.9L42.5998 13.9C44.7998 11.7 47.6998 10.5 50.6998 10.5H52.1998V24.1C52.1998 24.9 51.5998 25.5 50.7998 25.5C50.2998 25.5 49.7998 25.2 49.5998 24.8L47.1998 20.7C46.9998 20.5 46.6998 20.5 46.4998 20.6C46.2998 20.7 46.1998 21 46.2998 21.3L48.6998 25.4C49.0998 26.1 49.8998 26.6 50.7998 26.6C52.0998 26.6 53.1998 25.5 53.1998 24.2V10.5H54.6998C54.9998 10.5 55.1998 10.3 55.1998 10C55.1998 9.7 54.9998 9.5 54.6998 9.5Z" fill="#FCB019"/>
<path id="Vector_4" d="M22.7002 7.5C24.6002 7.5 26.2002 5.9 26.2002 4C26.2002 2.1 24.7002 0.5 22.7002 0.5C20.7002 0.5 19.2002 2.1 19.2002 4C19.2002 5.9 20.8002 7.5 22.7002 7.5ZM22.7002 1.5C24.1002 1.5 25.2002 2.6 25.2002 4C25.2002 5.4 24.1002 6.5 22.7002 6.5C21.3002 6.5 20.2002 5.4 20.2002 4C20.2002 2.6 21.3002 1.5 22.7002 1.5Z" fill="black"/>
<path id="Vector_5" d="M37.0998 14.5H30.0998L25.1998 9.6C25.0998 9.5 24.9998 9.4 24.8998 9.3C24.8998 9.3 24.8998 9.3 24.7998 9.2C24.5998 9.1 24.3998 8.9 24.1998 8.8C24.1998 8.8 24.1998 8.8 24.0998 8.8C23.8998 8.7 23.7998 8.7 23.5998 8.6H23.4998C23.2998 8.6 22.9998 8.5 22.7998 8.5C20.8998 8.5 19.2998 10.1 19.2998 12V23V25C19.2998 26.4 20.3998 27.5 21.7998 27.5L22.7998 28.5L27.3998 33.1V42.1C27.3998 43.5 28.4998 44.6 29.8998 44.6C31.2998 44.6 32.3998 43.5 32.3998 42.1V32.1C32.3998 31.4 32.0998 30.8 31.6998 30.3L28.4998 27.1L27.6998 26.3L26.2998 24.9V22.9V17.5L27.3998 18.6C27.8998 19.1 28.4998 19.3 29.1998 19.3H35.6998H36.9998H37.0998C38.4998 19.3 39.5998 18.2 39.5998 16.8V16.7C39.5998 16.3 39.4998 15.9 39.2998 15.6C38.7998 15 37.9998 14.5 37.0998 14.5ZM31.2998 42.1C31.2998 42.9 30.5998 43.6 29.7998 43.6C28.9998 43.6 28.2998 42.9 28.2998 42.1V32.9C28.2998 32.8 28.1998 32.6 28.1998 32.5L23.9998 28.5L23.0998 27.5L22.2998 26.7C22.1998 26.6 21.9998 26.5 21.8998 26.5H21.6998C20.8998 26.5 20.1998 25.8 20.1998 25V23.5H25.1998V25.2C25.1998 25.3 25.2998 25.5 25.2998 25.6L26.5998 26.9L27.3998 27.7L30.7998 31.1C31.0998 31.4 31.1998 31.8 31.1998 32.2V42.1H31.2998ZM25.1998 22.5H20.1998V12C20.1998 10.6 21.2998 9.5 22.6998 9.5H22.7998C22.8998 9.5 23.0998 9.5 23.1998 9.5H23.2998C23.3998 9.5 23.5998 9.6 23.6998 9.6C23.6998 9.6 23.6998 9.6 23.7998 9.6C23.8998 9.7 23.9998 9.7 24.1998 9.8C24.1998 9.8 24.2998 9.8 24.2998 9.9C24.3998 10 24.4998 10 24.5998 10.1L26.2998 11.8L29.5998 15.1C29.6998 15.2 29.7998 15.2 29.9998 15.2H37.1998C37.8998 15.2 38.3998 15.6 38.5998 16.3C38.5998 16.4 38.6998 16.6 38.6998 16.7C38.6998 17.5 37.9998 18.2 37.1998 18.2H36.6998H29.1998C28.7998 18.2 28.3998 18 28.0998 17.8L26.2998 16L25.2998 15L24.4998 14.5C24.3998 14.4 24.1998 14.3 23.9998 14.4C23.8998 14.4 23.7998 14.5 23.7998 14.5C23.5998 14.7 23.5998 15 23.7998 15.2L25.1998 16.6V22.5Z" fill="black"/>
</g>
</svg>
