<svg width="50" height="51" viewBox="0 0 50 51" fill="none" xmlns="http://www.w3.org/2000/svg">
<g id="face-smile">
<path id="Icon" d="M16.667 29.6666C16.667 29.6666 19.792 33.8333 25.0003 33.8333C30.2087 33.8333 33.3337 29.6666 33.3337 29.6666M31.2503 19.25H31.2712M18.7503 19.25H18.7712M45.8337 25.5C45.8337 37.0059 36.5063 46.3333 25.0003 46.3333C13.4944 46.3333 4.16699 37.0059 4.16699 25.5C4.16699 13.994 13.4944 4.66663 25.0003 4.66663C36.5063 4.66663 45.8337 13.994 45.8337 25.5ZM32.292 19.25C32.292 19.8253 31.8256 20.2916 31.2503 20.2916C30.675 20.2916 30.2087 19.8253 30.2087 19.25C30.2087 18.6747 30.675 18.2083 31.2503 18.2083C31.8256 18.2083 32.292 18.6747 32.292 19.25ZM19.792 19.25C19.792 19.8253 19.3256 20.2916 18.7503 20.2916C18.175 20.2916 17.7087 19.8253 17.7087 19.25C17.7087 18.6747 18.175 18.2083 18.7503 18.2083C19.3256 18.2083 19.792 18.6747 19.792 19.25Z" stroke="black" stroke-width="2" stroke-linecap="round" stroke-linejoin="round"/>
</g>
</svg>
