<svg width="45" height="47" viewBox="0 0 45 47" fill="none" xmlns="http://www.w3.org/2000/svg">
<g id="Football">
<path id="Vector" d="M22 7.5C23.9 7.5 25.5 5.9 25.5 4C25.5 2.1 24 0.5 22 0.5C20 0.5 18.5 2.1 18.5 4C18.5 5.9 20.1 7.5 22 7.5ZM22 1.5C23.4 1.5 24.5 2.6 24.5 4C24.5 5.4 23.4 6.5 22 6.5C20.6 6.5 19.5 5.4 19.5 4C19.5 2.6 20.7 1.5 22 1.5Z" fill="black"/>
<path id="Vector_2" d="M41.9 8.5H18C17.3 8.5 16.7 8.8 16.2 9.2L5 20.5C4.1 21.4 4 22.8 4.7 23.8C5.1 24.4 5.8 24.8 6.5 24.8C6.6 24.8 6.6 24.8 6.7 24.8C7.4 24.8 8 24.5 8.5 24.1L17.5 15.1V23.1V24.1L11.9 29.7H3C1.7 29.7 0.6 30.6 0.4 31.8C0.3 32.5 0.5 33.3 1 33.8C1.5 34.4 2.2 34.7 2.9 34.7H12.9C13.6 34.7 14.2 34.4 14.7 34L21 27.7H22.3L25.3 34.9V44.3C25.3 45.6 26.2 46.7 27.4 46.9C27.5 46.9 27.7 46.9 27.8 46.9C28.4 46.9 29 46.7 29.4 46.3C30 45.8 30.3 45.1 30.3 44.4V34.4C30.3 34.1 30.2 33.7 30.1 33.4L26.5 24.5V23V13.5H42C42.7 13.5 43.4 13.2 43.9 12.6C44.4 12 44.6 11.3 44.5 10.6C44.3 9.4 43.2 8.5 41.9 8.5ZM29.2 33.7C29.3 33.9 29.3 34.1 29.3 34.3V44.3C29.3 44.7 29.1 45.2 28.8 45.4C28.5 45.7 28 45.8 27.6 45.7C26.9 45.6 26.4 44.9 26.4 44.1V34.6C26.4 34.5 26.4 34.5 26.4 34.4L23.2 26.8C23.1 26.6 22.9 26.5 22.7 26.5H20.9C20.8 26.5 20.6 26.6 20.5 26.6L14 33.2C13.7 33.5 13.3 33.6 12.9 33.6H3C2.6 33.6 2.1 33.4 1.9 33.1C1.6 32.8 1.5 32.3 1.6 31.9C1.7 31.2 2.4 30.7 3.2 30.7H12.3C12.4 30.7 12.6 30.6 12.7 30.6L18.6 24.7C18.7 24.6 18.7 24.5 18.7 24.3V23.5H25.7V24.6C25.7 24.7 25.7 24.7 25.7 24.8L29.2 33.7ZM43.2 12C42.9 12.3 42.5 12.5 42 12.5H26C25.7 12.5 25.5 12.7 25.5 13V22.5H18.5V13.8C18.5 13.6 18.4 13.4 18.2 13.3C18 13.2 17.8 13.3 17.7 13.4L7.8 23.3C7.5 23.6 7.1 23.8 6.6 23.7C6.2 23.7 5.8 23.4 5.5 23.1C5.1 22.5 5.2 21.7 5.7 21.1L17 10C17.3 9.7 17.7 9.6 18.1 9.6H42C42.8 9.6 43.5 10.1 43.6 10.8C43.6 11.2 43.5 11.7 43.2 12Z" fill="black"/>
<path id="Vector_3" d="M13 39.8C11.1 39.8 9.5 41.4 9.5 43.3C9.5 45.2 11.1 46.8 13 46.8C14.9 46.8 16.5 45.2 16.5 43.3C16.5 41.4 14.9 39.8 13 39.8ZM13 45.8C11.6 45.8 10.5 44.7 10.5 43.3C10.5 41.9 11.6 40.8 13 40.8C14.4 40.8 15.5 41.9 15.5 43.3C15.5 44.7 14.3 45.8 13 45.8Z" fill="#FCB019"/>
</g>
</svg>
