<svg width="50" height="50" viewBox="0 0 50 50" fill="none" xmlns="http://www.w3.org/2000/svg">
<g id="globe-02">
<path id="Icon" d="M25.0001 4.16669C30.2111 9.87159 33.1725 17.2751 33.3334 25C33.1725 32.7249 30.2111 40.1285 25.0001 45.8334M25.0001 4.16669C19.7891 9.87159 16.8277 17.2751 16.6667 25C16.8277 32.7249 19.7891 40.1285 25.0001 45.8334M25.0001 4.16669C13.4941 4.16669 4.16675 13.4941 4.16675 25C4.16675 36.506 13.4941 45.8334 25.0001 45.8334M25.0001 4.16669C36.506 4.16669 45.8334 13.4941 45.8334 25C45.8334 36.506 36.506 45.8334 25.0001 45.8334M5.20845 18.75H44.7918M5.20841 31.25L44.7917 31.25" stroke="black" stroke-width="2" stroke-linecap="round" stroke-linejoin="round"/>
</g>
</svg>
