<svg width="53" height="39" viewBox="0 0 53 39" fill="none" xmlns="http://www.w3.org/2000/svg">
<g id="Hockey">
<path id="Vector" d="M50.9004 34.5C49.8004 34.5 48.9004 35.4 48.9004 36.5C48.9004 37.6 49.8004 38.5 50.9004 38.5C52.0004 38.5 52.9004 37.6 52.9004 36.5C52.9004 35.4 52.0004 34.5 50.9004 34.5ZM50.9004 37.5C50.3004 37.5 49.9004 37.1 49.9004 36.5C49.9004 35.9 50.3004 35.5 50.9004 35.5C51.5004 35.5 51.9004 35.9 51.9004 36.5C51.9004 37.1 51.4004 37.5 50.9004 37.5Z" fill="#FCB019"/>
<path id="Vector_2" d="M45.0004 34.3C44.8004 34.5 44.8004 34.8 45.0004 35C45.3004 35.3 45.4004 35.7 45.4004 36.1C45.4004 36.5 45.2004 36.9 45.0004 37.2C44.4004 37.8 43.5004 37.8 42.9004 37.2L30.6004 24.8C30.4004 25.1 30.2004 25.3 30.0004 25.5H29.9004L42.2004 37.8C42.7004 38.3 43.3004 38.5 44.0004 38.5C44.6004 38.5 45.3004 38.3 45.8004 37.8C46.3004 37.3 46.5004 36.7 46.5004 36C46.5004 35.3 46.2004 34.7 45.8004 34.2C45.5004 34.1 45.2004 34.1 45.0004 34.3Z" fill="#00A64F"/>
<path id="Vector_3" d="M27.5002 7.59999C28.4002 7.59999 29.3002 7.29999 30.0002 6.59999C30.7002 5.89999 31.0002 5.09999 31.0002 4.09999C31.0002 3.19999 30.6002 2.29999 30.0002 1.59999C28.6002 0.199988 26.4002 0.199988 25.0002 1.59999C23.6002 2.99999 23.6002 5.19999 25.0002 6.49999C25.7002 7.29999 26.6002 7.59999 27.5002 7.59999ZM25.7002 2.29999C26.2002 1.79999 26.8002 1.59999 27.5002 1.59999C28.1002 1.59999 28.8002 1.79999 29.3002 2.29999C29.8002 2.79999 30.0002 3.39999 30.0002 4.09999C30.0002 4.79999 29.7002 5.39999 29.3002 5.89999C28.3002 6.89999 26.7002 6.89999 25.8002 5.89999C24.8002 4.89999 24.8002 3.29999 25.7002 2.29999Z" fill="black"/>
<path id="Vector_4" d="M30.6002 24.8C30.8002 24.5 31.0002 24.1 31.0002 23.6C31.1002 22.9 30.8002 22.1 30.3002 21.6L25.4002 16.7V9.69998C25.4002 8.79998 25.0002 7.89998 24.4002 7.19998C23.1002 5.89998 20.8002 5.89998 19.5002 7.19998L11.7002 15L10.2002 16.5C9.2002 17.5 9.2002 19 10.2002 20V26.5H2.7002C1.3002 26.5 0.200195 27.6 0.200195 29C0.200195 30.4 1.3002 31.5 2.7002 31.5H12.7002C14.1002 31.5 15.2002 30.4 15.2002 29V25L17.3002 27.1V36C17.3002 37.3 18.2002 38.4 19.4002 38.6C19.5002 38.6 19.7002 38.6 19.8002 38.6C20.4002 38.6 21.0002 38.4 21.4002 38C22.0002 37.5 22.3002 36.8 22.3002 36.1V26.1C22.3002 25.4 22.0002 24.8 21.6002 24.3L17.0002 19.7L20.5002 16.2V17.8C20.5002 18.5 20.8002 19.1 21.2002 19.6L26.8002 25.2C27.3002 25.7 28.0002 26 28.7002 26C29.2002 26 29.6002 25.9 30.0002 25.6H30.1002C30.2002 25.3 30.4002 25 30.6002 24.8ZM14.2002 29C14.2002 29.8 13.5002 30.5 12.7002 30.5H2.7002C1.9002 30.5 1.2002 29.8 1.2002 29C1.2002 28.2 1.8002 27.5 2.7002 27.5H10.7002C11.0002 27.5 11.2002 27.3 11.2002 27V21L14.2002 24V29ZM20.8002 25C21.1002 25.3 21.2002 25.7 21.2002 26.1V36.1C21.2002 36.5 21.0002 37 20.7002 37.2C20.4002 37.5 19.9002 37.6 19.5002 37.5C18.8002 37.4 18.3002 36.7 18.3002 35.9V26.8C18.3002 26.7 18.2002 26.5 18.2002 26.4L15.3002 23.5L14.8002 23L14.3002 22.5L11.3002 19.5L11.0002 19.2C10.9002 19.1 10.8002 19 10.8002 18.8C10.5002 18.2 10.6002 17.5 11.0002 17L12.1002 15.9L12.5002 16.3L13.0002 16.8L14.9002 18.7L15.4002 19.2L20.8002 25ZM29.8002 24.1C29.7002 24.3 29.5002 24.5 29.3002 24.7C29.2002 24.8 29.1002 24.8 29.1002 24.8C28.5002 25.1 27.8002 24.9 27.3002 24.5L21.7002 18.9C21.4002 18.6 21.3002 18.2 21.3002 17.8V15.2V13.8V12.8C21.3002 12.6 21.2002 12.5 21.1002 12.4C21.0002 12.4 20.9002 12.3 20.8002 12.3C20.5002 12.3 20.3002 12.5 20.3002 12.8V14.8L16.1002 19L12.6002 15.5L20.0002 8.09998C20.9002 7.19998 22.6002 7.19998 23.5002 8.09998L23.6002 8.19998C24.0002 8.69998 24.3002 9.19997 24.3002 9.89997V12.3V17C24.3002 17.1 24.4002 17.3 24.4002 17.4L29.5002 22.5C29.8002 22.8 30.0002 23.2 29.9002 23.7C30.0002 23.7 29.9002 23.9 29.8002 24.1Z" fill="black"/>
</g>
</svg>
