<svg width="46" height="33" viewBox="0 0 46 33" fill="none" xmlns="http://www.w3.org/2000/svg">
<g id="Ice_hockey">
<path id="Vector" d="M44.1998 29.5H37.3998L32.4998 24.6C32.4998 24.6 32.4998 24.6 32.4998 24.7C32.2998 25 32.0998 25.2 31.7998 25.3L36.8998 30.4L37.6998 31.2C38.4998 32.1 39.6998 32.5 40.8998 32.5H44.1998C44.9998 32.5 45.6998 31.8 45.6998 31C45.6998 30.2 44.9998 29.5 44.1998 29.5ZM44.1998 31.5H40.8998C39.9998 31.5 39.0998 31.1 38.4998 30.5H44.2998C44.5998 30.5 44.7998 30.7 44.7998 31C44.7998 31.3 44.4998 31.5 44.1998 31.5Z" fill="#EE2B2F"/>
<path id="Vector_2" d="M20.9 13.1H19.5L22.2 15.8V14.4L20.9 13.1Z" fill="#EE2B2F"/>
<path id="Vector_3" d="M23.3994 31.5H15.3994C15.0994 31.5 14.8994 31.7 14.8994 32C14.8994 32.3 15.0994 32.5 15.3994 32.5H23.3994C23.6994 32.5 23.8994 32.3 23.8994 32C23.8994 31.7 23.6994 31.5 23.3994 31.5Z" fill="#2A76BC"/>
<path id="Vector_4" d="M9.2998 31.5H1.2998C0.999805 31.5 0.799805 31.7 0.799805 32C0.799805 32.3 0.999805 32.5 1.2998 32.5H9.2998C9.5998 32.5 9.7998 32.3 9.7998 32C9.7998 31.7 9.4998 31.5 9.2998 31.5Z" fill="#2A76BC"/>
<path id="Vector_5" d="M29.4002 7.39999C30.3002 7.39999 31.2002 6.99999 31.9002 6.39999C32.6002 5.69999 32.9002 4.89999 32.9002 3.89999C32.9002 2.99999 32.5002 2.09999 31.9002 1.39999C30.6002 0.0999878 28.3002 0.0999878 27.0002 1.39999C25.6002 2.79999 25.6002 4.99999 27.0002 6.29999C27.6002 6.99999 28.4002 7.39999 29.4002 7.39999ZM27.6002 2.09999C28.1002 1.59999 28.7002 1.39999 29.4002 1.39999C30.1002 1.39999 30.7002 1.69999 31.2002 2.09999C31.7002 2.59999 31.9002 3.19999 31.9002 3.89999C31.9002 4.59999 31.6002 5.19999 31.2002 5.69999C30.3002 6.59999 28.6002 6.59999 27.7002 5.69999C26.6002 4.69999 26.6002 3.09999 27.6002 2.09999Z" fill="black"/>
<path id="Vector_6" d="M32.3996 24.7C32.3996 24.6 32.3996 24.6 32.3996 24.7C33.0996 23.7 32.8996 22.3 31.9996 21.4L27.1996 16.5V9.5C27.1996 8.6 26.7996 7.7 26.1996 7L20.4996 1.3C19.7996 0.599998 18.6996 0.399998 17.7996 0.799998C16.7996 1.2 16.2996 2.1 16.2996 3.1V6H12.6996C11.7996 6 10.8996 6.4 10.1996 7L8.79961 8.5C7.79961 9.5 7.79961 11 8.79961 12V19.9L2.49961 26.2C1.59961 27.1 1.49961 28.5 2.19961 29.5C2.59961 30.1 3.29961 30.5 3.99961 30.5C4.09961 30.5 4.09961 30.5 4.19961 30.5C4.89961 30.5 5.49961 30.2 5.99961 29.8L13.0996 22.7C13.5996 22.2 13.7996 21.6 13.7996 20.9V16.9L15.8996 19V27.9C15.8996 29.2 16.7996 30.3 17.9996 30.5C18.0996 30.5 18.2996 30.5 18.3996 30.5C18.9996 30.5 19.5996 30.3 19.9996 29.9C20.5996 29.4 20.8996 28.7 20.8996 28V18C20.8996 17.3 20.5996 16.7 20.1996 16.2L16.9996 13H19.5996H20.9996H22.2996V14.3V15.7V17.5C22.2996 18.2 22.5996 18.8 22.9996 19.3L28.6996 25C29.1996 25.5 29.7996 25.7 30.4996 25.7C30.5996 25.7 30.5996 25.7 30.6996 25.7C31.0996 25.7 31.4996 25.5 31.8996 25.3C31.9996 25.1 32.1996 24.9 32.3996 24.7ZM31.6996 23.9C31.6996 24 31.5996 24.1 31.5996 24.1C31.3996 24.3 31.1996 24.5 30.9996 24.6C30.7996 24.7 30.6996 24.7 30.4996 24.7C30.0996 24.7 29.5996 24.6 29.2996 24.3L23.5996 18.6C23.2996 18.3 23.1996 17.9 23.1996 17.5V16.7V15.3V13V12.5V12V11V10.5V10.4C23.0996 10.2 22.9996 10 22.6996 10C22.4996 10 22.3996 10.1 22.2996 10.2C22.1996 10.3 22.1996 10.4 22.1996 10.5V12H19.8996H18.4996H15.8996L11.2996 7.5C11.6996 7.2 12.1996 7.1 12.6996 7.1H16.2996H17.2996H23.6996C24.3996 7.1 24.9996 7.4 25.4996 7.8C25.9996 8.3 26.1996 8.9 26.1996 9.6V9.7V10.6V11.2V12V16.7C26.1996 16.8 26.2996 17 26.2996 17.1L31.2996 22.1C31.7996 22.6 31.9996 23.3 31.6996 23.9ZM19.8996 28.1C19.8996 28.5 19.6996 29 19.3996 29.2C18.9996 29.5 18.5996 29.6 18.0996 29.5C17.3996 29.4 16.7996 28.7 16.7996 27.9V18.8C16.7996 18.7 16.6996 18.5 16.6996 18.4L13.7996 15.5L13.2996 15L12.7996 14.5L10.2996 12L9.89961 11.6L9.59961 11.3C9.49961 11.2 9.39961 11.1 9.39961 10.9C9.19961 10.5 9.09961 10 9.29961 9.6C9.39961 9.5 9.49961 9.3 9.59961 9.2C9.59961 9.2 9.59961 9.2 9.59961 9.1L9.79961 8.9L10.5996 8.1L10.9996 8.5L11.4996 9L13.2996 10.8L13.7996 11.3L14.4996 12L14.9996 12.5L15.4996 13L19.3996 16.9C19.6996 17.2 19.7996 17.6 19.7996 18V28.1H19.8996ZM12.7996 21C12.7996 21.4 12.5996 21.8 12.3996 22.1L5.29961 29.2C4.99961 29.5 4.49961 29.7 4.09961 29.6C3.69961 29.6 3.29961 29.3 2.99961 29C2.59961 28.4 2.69961 27.6 3.19961 27L9.59961 20.6C9.69961 20.5 9.69961 20.4 9.69961 20.2V13.1L12.6996 16.1V21H12.7996ZM17.2996 3.2C17.2996 2.5 17.7996 2 18.1996 1.8C18.5996 1.6 19.2996 1.6 19.7996 2.1L23.6996 6H17.2996V3.2Z" fill="black"/>
</g>
</svg>
