<svg width="42" height="36" viewBox="0 0 42 36" fill="none" xmlns="http://www.w3.org/2000/svg">
<g id="Rugby">
<path id="Vector" d="M32.6004 16.3C32.2004 16.3 31.8004 16.1 31.5004 15.9L28.3004 12.7L28.7004 12.3C29.4004 11.6 29.7004 10.8 29.7004 9.80001L33.0004 13.1C33.0004 13.1 33.1004 13.2 33.2004 13.2C33.3004 12.8 33.4004 12.5 33.5004 12.2L28.6004 7.30001L23.0004 1.70001C22.0004 0.700012 20.4004 0.700012 19.5004 1.70001L13.8004 7.40001C12.8004 8.40001 12.8004 10 13.8004 10.9C14.3004 11.4 14.9004 11.6 15.6004 11.6C16.2004 11.6 16.9004 11.4 17.4004 10.9L21.3004 7.00001L22.7004 8.40001L16.0004 15.1L14.6004 16.5C14.2004 16.9 14.0004 17.4 13.9004 18L1.10039 30.8C0.600391 31.3 0.400391 31.9 0.400391 32.6C0.400391 33.3 0.700391 33.9 1.10039 34.4C1.60039 34.9 2.20039 35.1 2.90039 35.1C3.50039 35.1 4.20039 34.9 4.70039 34.4L16.7004 22.3L20.6004 26.2L15.3004 31.5C14.8004 32 14.6004 32.6 14.6004 33.3C14.6004 34 14.9004 34.6 15.3004 35.1C15.8004 35.6 16.4004 35.8 17.1004 35.8C17.8004 35.8 18.4004 35.6 18.9004 35.1L26.0004 28C26.4004 27.6 26.7004 27 26.7004 26.4V26.3C26.7004 26.3 26.7004 26.3 26.7004 26.2C26.7004 26.1 26.7004 26.1 26.7004 26V25.9C26.6004 25.3 26.4004 24.8 26.0004 24.4L21.4004 19.8L27.8004 13.4L31.0004 16.6C31.5004 17.1 32.1004 17.3 32.8004 17.3H33.8004C33.7004 17 33.5004 16.6 33.4004 16.3H32.6004ZM25.6004 26.1C25.6004 26.6 25.4004 26.9 25.2004 27.2L18.1004 34.3C17.5004 34.9 16.6004 34.9 16.0004 34.3C15.7004 34 15.6004 33.6 15.6004 33.2C15.6004 32.8 15.8004 32.4 16.0004 32.1L21.7004 26.5C21.8004 26.4 21.8004 26.3 21.8004 26.1C21.8004 26 21.7004 25.8 21.7004 25.7L17.4004 21.5L17.0004 21.2L16.6004 20.8L15.2004 19.4C14.9004 19.1 14.8004 18.8 14.8004 18.5C14.8004 18.2 14.9004 17.8 15.1004 17.5C15.2004 17.4 15.2004 17.3 15.3004 17.3L16.4004 16.2L16.6004 16.4L17.0004 16.8L18.5004 18.3L18.9004 18.7L19.3004 19.1L20.1004 19.9L25.0004 24.8C25.3004 25.1 25.4004 25.4 25.4004 25.8C25.6004 26 25.6004 26.1 25.6004 26.1ZM1.80039 33.6C1.50039 33.3 1.40039 32.9 1.40039 32.5C1.40039 32.1 1.60039 31.7 1.80039 31.4L14.0004 19.3C14.1004 19.6 14.3004 19.9 14.5004 20.1L16.0004 21.5L4.00039 33.6C3.40039 34.2 2.40039 34.2 1.80039 33.6ZM20.5004 19L19.4004 17.9L17.4004 15.9L17.0004 15.5L23.4004 9.10001L24.5004 10.2C24.6004 10.3 24.7004 10.3 24.8004 10.3C24.9004 10.3 25.1004 10.3 25.2004 10.2C25.4004 10 25.4004 9.80001 25.3004 9.60001C25.3004 9.60001 25.3004 9.50001 25.2004 9.50001L24.5004 8.80001L24.1004 8.40001L23.7004 8.00001L23.3004 7.60001L21.5004 5.80001C21.3004 5.60001 21.0004 5.60001 20.8004 5.80001L16.6004 10C16.0004 10.6 15.1004 10.6 14.5004 10C13.9004 9.40001 13.9004 8.50001 14.5004 7.90001L20.2004 2.20001C20.8004 1.60001 21.7004 1.60001 22.3004 2.20001L26.3004 6.20001L26.6004 6.50001L26.8004 6.70001L27.9004 7.80001L28.0004 7.90001C28.5004 8.40001 28.7004 9.00001 28.7004 9.70001C28.7004 10.4 28.4004 11 28.0004 11.5L27.6004 11.9L26.9004 12.6L20.5004 19Z" fill="black"/>
<path id="Vector_2" d="M31.9 7.7C32.8 7.7 33.7 7.3 34.4 6.7C35.8 5.3 35.8 3.1 34.4 1.8C33 0.4 30.8 0.4 29.5 1.8C28.8 2.5 28.5 3.3 28.5 4.3C28.5 5.2 28.9 6.1 29.5 6.8C30.1 7.5 30.9 7.7 31.9 7.7ZM30.1 2.4C30.6 1.9 31.2 1.7 31.9 1.7C32.6 1.7 33.2 1.9 33.7 2.4C34.7 3.4 34.7 5 33.7 5.9C32.8 6.8 31.1 6.8 30.2 5.9C29.7 5.4 29.5 4.8 29.5 4.1C29.4 3.5 29.6 2.9 30.1 2.4Z" fill="black"/>
<path id="Vector_3" d="M37.9 17.2C37.7 17.2 37.6 17.1 37.4 17C37.4 17.1 37.3 17.2 37.3 17.3C37.1 17.7 36.8 18.1 36.6 18.4C36.3 18.8 35.7 18.8 35.4 18.4C35.2 18.1 34.9 17.7 34.7 17.3C34.5 17 34.4 16.7 34.3 16.3C34.1 15.8 34 15.3 34 14.7C34 14.2 34.1 13.7 34.2 13.3C34.3 12.9 34.4 12.6 34.6 12.3C34.8 11.8 35.1 11.4 35.4 11C35.5 10.8 35.8 10.7 36 10.7C36.2 10.7 36.4 10.8 36.6 11C36.9 11.4 37.1 11.8 37.4 12.3C37.4 12.4 37.5 12.5 37.5 12.6C37.6 12.5 37.8 12.5 38 12.4C38.2 12.4 38.3 12.3 38.5 12.3C38.2 11.6 37.8 10.9 37.4 10.4C36.7 9.49998 35.3 9.49998 34.6 10.4C34.2 10.9 33.8 11.5 33.5 12.2C33.4 12.5 33.2 12.9 33.2 13.2C33.1 13.7 33 14.2 33 14.7C33 15.3 33.1 15.8 33.2 16.3C33.3 16.6 33.4 17 33.6 17.3C33.9 18 34.3 18.6 34.6 19C34.9 19.4 35.4 19.7 36 19.7C36.6 19.7 37.1 19.4 37.4 19C37.7 18.5 38.1 17.9 38.4 17.3C38.2 17.3 38.1 17.2 37.9 17.2Z" fill="#EE2B2F"/>
<path id="Vector_4" d="M38.6006 12.3H38.5006C38.5006 12.3 38.5006 12.3 38.6006 12.3C38.3006 12.3 38.2006 12.3 38.0006 12.4C37.8006 12.4 37.7006 12.5 37.5006 12.6C37.1006 12.8 36.8006 13 36.6006 13.3C36.3006 13.7 36.1006 14.2 36.1006 14.8C36.1006 15.4 36.3006 15.9 36.6006 16.3C36.8006 16.6 37.1006 16.8 37.4006 17C37.5006 17.1 37.7006 17.1 37.9006 17.2C38.1006 17.2 38.2006 17.3 38.4006 17.3H38.6006C40.0006 17.3 41.1006 16.2 41.1006 14.8C41.1006 13.4 39.9006 12.3 38.6006 12.3ZM38.8006 16.3C38.7006 16.3 38.7006 16.3 38.6006 16.3C38.5006 16.3 38.4006 16.3 38.3006 16.3C38.1006 16.3 38.0006 16.2 37.8006 16.1C37.4006 15.8 37.1006 15.4 37.1006 14.8C37.1006 14.2 37.4006 13.8 37.9006 13.5C38.0006 13.4 38.2006 13.4 38.4006 13.3C38.5006 13.3 38.6006 13.3 38.7006 13.3C38.8006 13.3 38.9006 13.3 38.9006 13.3C39.6006 13.4 40.2006 14 40.2006 14.8C40.1006 15.6 39.5006 16.2 38.8006 16.3Z" fill="black"/>
</g>
</svg>
