<svg width="50" height="50" viewBox="0 0 50 50" fill="none" xmlns="http://www.w3.org/2000/svg">
<g id="scales-02">
<path id="Icon" d="M5.20924 27.0834H17.7092M32.2926 27.0834L44.7926 27.0834M25.0009 14.5834L25.0009 43.75M25.0009 14.5834C27.8774 14.5834 30.2092 12.2515 30.2092 9.37502M25.0009 14.5834C22.1244 14.5834 19.7926 12.2515 19.7926 9.37502M8.33424 43.75L41.6676 43.75M8.33424 9.37504L19.7926 9.37502M19.7926 9.37502C19.7926 6.49854 22.1244 4.16669 25.0009 4.16669C27.8774 4.16669 30.2092 6.49854 30.2092 9.37502M30.2092 9.37502L41.6676 9.37502M18.5018 29.8674C17.667 33.0637 14.8303 35.4167 11.4592 35.4167C8.08819 35.4167 5.25144 33.0637 4.41666 29.8674C4.34845 29.6063 4.31435 29.4757 4.31106 28.9539C4.30904 28.6341 4.42791 27.8966 4.53031 27.5936C4.69738 27.0993 4.87821 26.8203 5.23989 26.2623L11.4592 16.6667L17.6786 26.2623C18.0403 26.8203 18.2211 27.0993 18.3882 27.5936C18.4906 27.8966 18.6094 28.6341 18.6074 28.9539C18.6041 29.4757 18.57 29.6063 18.5018 29.8674ZM45.5852 29.8674C44.7504 33.0637 41.9136 35.4167 38.5426 35.4167C35.1715 35.4167 32.3348 33.0637 31.5 29.8674C31.4318 29.6063 31.3977 29.4757 31.3944 28.9539C31.3924 28.6341 31.5112 27.8966 31.6136 27.5936C31.7807 27.0993 31.9615 26.8203 32.3232 26.2623L38.5426 16.6667L44.7619 26.2623C45.1236 26.8203 45.3044 27.0993 45.4715 27.5936C45.5739 27.8966 45.6928 28.6341 45.6908 28.9539C45.6875 29.4757 45.6534 29.6063 45.5852 29.8674Z" stroke="black" stroke-width="2" stroke-linecap="round" stroke-linejoin="round"/>
</g>
</svg>
