<svg width="50" height="51" viewBox="0 0 50 51" fill="none" xmlns="http://www.w3.org/2000/svg">
<g id="scan">
<path id="Icon" d="M16.6667 6.75H16.25C12.7497 6.75 10.9995 6.75 9.66256 7.43121C8.48655 8.03042 7.53042 8.98655 6.93121 10.1626C6.25 11.4995 6.25 13.2497 6.25 16.75V17.1667M16.6667 44.25H16.25C12.7497 44.25 10.9995 44.25 9.66256 43.5688C8.48655 42.9696 7.53042 42.0135 6.93121 40.8374C6.25 39.5005 6.25 37.7503 6.25 34.25V33.8333M43.75 17.1667V16.75C43.75 13.2497 43.75 11.4995 43.0688 10.1626C42.4696 8.98655 41.5135 8.03042 40.3374 7.43121C39.0005 6.75 37.2503 6.75 33.75 6.75H33.3333M43.75 33.8333V34.25C43.75 37.7503 43.75 39.5005 43.0688 40.8374C42.4696 42.0135 41.5135 42.9696 40.3374 43.5688C39.0005 44.25 37.2503 44.25 33.75 44.25H33.3333M6.25 25.5H6.27083M15.625 25.5H15.6458M34.375 25.5H34.3958M25 25.5H25.0208M43.75 25.5H43.7708" stroke="black" stroke-width="2" stroke-linecap="round" stroke-linejoin="round"/>
</g>
</svg>
