<svg width="50" height="51" viewBox="0 0 50 51" fill="none" xmlns="http://www.w3.org/2000/svg">
<g id="shield-zap">
<path id="Icon" d="M27.083 16.125L20.833 22.375L29.1663 26.5417L22.9163 32.7917M41.6663 25.5C41.6663 35.7259 30.5123 43.1633 26.4538 45.531C25.9926 45.8001 25.762 45.9346 25.4365 46.0044C25.1839 46.0586 24.8154 46.0586 24.5628 46.0044C24.2374 45.9346 24.0068 45.8001 23.5455 45.531C19.4871 43.1633 8.33301 35.7259 8.33301 25.5L8.33301 15.5367C8.33301 13.871 8.33301 13.0382 8.60543 12.3223C8.84608 11.6899 9.23714 11.1256 9.7448 10.6782C10.3195 10.1718 11.0993 9.87934 12.6589 9.29449L23.8293 5.10559C24.2624 4.94317 24.4789 4.86196 24.7017 4.82977C24.8993 4.80121 25.1 4.80121 25.2976 4.82977C25.5204 4.86196 25.737 4.94317 26.1701 5.10559L37.3405 9.29449C38.9001 9.87934 39.6799 10.1718 40.2546 10.6782C40.7622 11.1256 41.1533 11.6899 41.3939 12.3223C41.6663 13.0382 41.6663 13.871 41.6663 15.5367V25.5Z" stroke="black" stroke-width="2" stroke-linecap="round" stroke-linejoin="round"/>
</g>
</svg>
