<svg width="50" height="50" viewBox="0 0 50 50" fill="none" xmlns="http://www.w3.org/2000/svg">
<g id="star-05">
<path id="Icon" d="M25.0001 4.16669L22.2886 15.0125C21.7595 17.1289 21.495 18.1871 20.944 19.0481C20.4566 19.8098 19.8098 20.4566 19.0482 20.9439C18.1871 21.4949 17.1289 21.7595 15.0126 22.2886L4.16675 25L15.0126 27.7115C17.1289 28.2406 18.1871 28.5051 19.0482 29.0561C19.8098 29.5435 20.4566 30.1903 20.944 30.9519C21.495 31.813 21.7595 32.8712 22.2886 34.9875L25.0001 45.8334L27.7115 34.9875C28.2406 32.8712 28.5052 31.813 29.0562 30.9519C29.5435 30.1903 30.1903 29.5435 30.952 29.0561C31.813 28.5051 32.8712 28.2406 34.9876 27.7115L45.8334 25L34.9876 22.2886C32.8712 21.7595 31.813 21.4949 30.952 20.9439C30.1903 20.4566 29.5435 19.8098 29.0562 19.0481C28.5052 18.1871 28.2406 17.1289 27.7115 15.0125L25.0001 4.16669Z" stroke="black" stroke-width="2" stroke-linecap="round" stroke-linejoin="round"/>
</g>
</svg>
