<svg width="50" height="51" viewBox="0 0 50 51" fill="none" xmlns="http://www.w3.org/2000/svg">
<g id="ticket-01">
<path id="Icon" d="M20.8337 17.1666V15.0833M20.8337 26.5416V24.4583M20.8337 35.9166V33.8333M10.8337 8.83331L39.167 8.83331C41.5005 8.83331 42.6673 8.83331 43.5586 9.28745C44.3426 9.68692 44.98 10.3243 45.3795 11.1084C45.8337 11.9997 45.8337 13.1664 45.8337 15.5V18.2083C41.8066 18.2083 38.542 21.4729 38.542 25.5C38.542 29.5271 41.8066 32.7916 45.8337 32.7916V35.5C45.8337 37.8335 45.8337 39.0003 45.3795 39.8916C44.98 40.6756 44.3426 41.313 43.5586 41.7125C42.6673 42.1666 41.5005 42.1666 39.167 42.1666H10.8337C8.50011 42.1666 7.33333 42.1666 6.44203 41.7125C5.65802 41.313 5.0206 40.6756 4.62113 39.8916C4.16699 39.0003 4.16699 37.8335 4.16699 35.5L4.16699 32.7916C8.19407 32.7916 11.4587 29.5271 11.4587 25.5C11.4587 21.4729 8.19407 18.2083 4.16699 18.2083L4.16699 15.5C4.16699 13.1664 4.16699 11.9997 4.62113 11.1084C5.0206 10.3243 5.65802 9.68692 6.44203 9.28745C7.33333 8.83331 8.50011 8.83331 10.8337 8.83331Z" stroke="black" stroke-width="2" stroke-linecap="round" stroke-linejoin="round"/>
</g>
</svg>
